<?xml version="1.0" encoding="utf-8"?>
<!-- Generator: Adobe Illustrator 19.0.1, SVG Export Plug-In . SVG Version: 6.00 Build 0)  -->
<svg version="1.1" id="Layer_1" xmlns:sketch="http://www.bohemiancoding.com/sketch/ns"
	 xmlns="http://www.w3.org/2000/svg" xmlns:xlink="http://www.w3.org/1999/xlink" x="0px" y="0px" viewBox="-191.2 399.8 193.2 44"
	 style="enable-background:new -191.2 399.8 193.2 44;" xml:space="preserve">
<style type="text/css">
	.st0{enable-background:new    ;}
	.st1{fill:#222222;}
</style>
<title>Mondo</title>
<desc>Created with Sketch Beta.</desc>
<g id="Page-1" sketch:type="MSPage">
	<g id="Home" transform="translate(-688.000000, -172.000000)" sketch:type="MSArtboardGroup">
		
			<g id="Silver-_x40_2x-_x2B_-Debit-Card-_x2B_-We-make-money-easy.-_x2B_-Mondo" transform="translate(161.000000, 100.000000)" sketch:type="MSLayerGroup">
			<g id="We-make-money-easy.-_x2B_-Mondo" transform="translate(528.000000, 59.000000)" sketch:type="MSTextLayer">
				<g id="Mondo">
					<g class="st0">
						<path class="st1" d="M-127.5,455.9h-14v-7.1h3.5v-23.3l-19,30.4h-7.7v-30.2l-14.2,23.2h4.9v7.1h-18.2v-7.1h5l17.8-29h-4.2v-7
							h16v30.8l14.8-23.8h-4.2v-7h16v36.1h3.5V455.9z"/>
						<path class="st1" d="M-127.5,441.4c0-8.7,7.6-15.4,15.4-15.4c8.6,0,15.4,7.3,15.4,15.4c0,8.6-7.2,15.4-15.4,15.4
							C-120.9,456.8-127.5,449.3-127.5,441.4z M-120.4,441.4c0,4.6,3.8,8.4,8.3,8.4c4.6,0,8.4-3.8,8.4-8.4s-3.8-8.3-8.4-8.3
							C-116.7,433-120.4,436.8-120.4,441.4z"/>
						<path class="st1" d="M-82.6,455.9h-13.6v-7.1h3.1v-14.9h-3.1v-7h7.1l1.1,2c2.3-1.8,5.1-2.9,8.3-2.9c7.4,0,13.4,6.3,13.4,13.4
							v9.5h3.1v7.1h-13.6v-7.1h3.5v-9.5c0-3.5-2.9-6.3-6.4-6.3c-3.4,0-6.4,2.7-6.4,6.1v9.7h3.5V455.9z"/>
						<path class="st1" d="M-29.6,455.9h-7.5l-1.5-2.7c-2.8,2.3-6.2,3.5-9.9,3.5c-4.1,0-8-1.6-10.9-4.5c-2.9-2.9-4.6-6.8-4.6-10.9
							c0-8.7,7.6-15.4,15.4-15.4c3,0,5.9,0.9,8.4,2.5v-8.6h-3.1v-7h10.1v36.1h3.5V455.9z M-56.8,441.3c0,4.6,3.7,8.4,8.3,8.4
							c4.5,0,8.2-3.6,8.4-8v-0.4c0-4.6-3.8-8.3-8.4-8.3S-56.8,436.7-56.8,441.3z"/>
						<path class="st1" d="M-29.8,441.4c0-8.7,7.6-15.4,15.4-15.4c8.6,0,15.4,7.3,15.4,15.4c0,8.6-7.2,15.4-15.4,15.4
							C-23.2,456.8-29.8,449.3-29.8,441.4z M-22.8,441.4c0,4.6,3.8,8.4,8.3,8.4c4.6,0,8.4-3.8,8.4-8.4s-3.8-8.3-8.4-8.3
							C-19,433-22.8,436.8-22.8,441.4z"/>
					</g>
				</g>
			</g>
		</g>
	</g>
</g>
</svg>
