<?xml version="1.0" encoding="utf-8"?>
<!-- Generator: Adobe Illustrator 19.0.0, SVG Export Plug-In . SVG Version: 6.00 Build 0)  -->
<svg version="1.0" id="Layer_1" xmlns="http://www.w3.org/2000/svg" xmlns:xlink="http://www.w3.org/1999/xlink" x="0px" y="0px"
	 viewBox="0 0 636.8 148" style="enable-background:new 0 0 636.8 148;" xml:space="preserve">
<style type="text/css">
	.st0{fill:#14233C;}
	.st1{fill:#1E788B;}
	.st2{fill:#D13C50;}
	.st3{fill:#EAD19F;}
	.st4{fill:#9ABDA9;}
</style>
<g id="XMLID_2_">
	<g id="XMLID_10_">
		<path id="XMLID_22_" class="st0" d="M229.5,110.1V44.6h17.4v8.8c4-6.7,9.9-10,17.8-10s13.9,3.4,18.2,10.5
			c6.8-7.2,12.1-10.5,20.3-10.5c14.8,0,23.1,8.3,23.1,23.5v43.2h-18.8V74.6c0-9.2-2-13.3-9.2-13.3c-7.3,0-11.2,4.5-11.2,13.3v35.5
			h-18.9V74.6c0-9.2-2-13.3-9.2-13.3c-7.3,0-11.2,4.5-11.2,13.3v35.5H229.5z"/>
		<path id="XMLID_19_" class="st0" d="M347,53.1c6.6-6.6,15.3-10.2,24.2-10.2c9.5,0,17.7,3.3,24.3,9.5c7,6.6,10.7,15.6,10.7,24.5
			c0,9.9-3.3,18.1-9.9,24.6c-6.7,6.7-15,10.2-24.9,10.2c-10,0-18.1-3.4-24.8-10.5c-6.3-6.6-9.6-15-9.6-24.2S340.5,59.6,347,53.1z
			 M371.5,93.5c8.5,0,15.5-7.2,15.5-16.1c0-9-7-16.2-15.5-16.2c-8.5,0-15.5,7.2-15.5,16.2C356,86.3,363.1,93.5,371.5,93.5z"/>
		<path id="XMLID_17_" class="st0" d="M417,110.1V44.6h18.3l-0.2,8.8c4-6.6,10.1-10,18.8-10c13.5,0,22.3,8.5,22.3,23.5v43.2h-19.3
			V74.6c0-9.2-2-13.3-9.4-13.3c-7.6,0-11.6,4.5-11.6,13.3v35.5H417z"/>
		<path id="XMLID_14_" class="st0" d="M538.1,102.8c-5.7,5.6-11.6,7.7-19.4,7.7c-7.9,0-14.8-2.6-20.5-7.7
			c-7.6-6.7-11.5-15.5-11.5-25.7c0-9.4,3.7-17.8,10.5-24.4c6.1-6,13.5-9,21.8-9c7.9,0,14,2.7,18.4,8.3V23.4h19.3v86.7h-18.7V102.8z
			 M523,93c8.3,0,15.3-6.8,15.3-15.9c0-9.4-7-16.5-16-16.5c-9.1,0-16.2,7.4-16.2,16.2C506.1,86.1,513.1,93,523,93z"/>
		<path id="XMLID_11_" class="st0" d="M577.6,53.1c6.6-6.6,15.3-10.2,24.2-10.2c9.5,0,17.7,3.3,24.3,9.5c7,6.6,10.7,15.6,10.7,24.5
			c0,9.9-3.3,18.1-9.9,24.6c-6.7,6.7-15,10.2-24.9,10.2c-10,0-18.1-3.4-24.8-10.5c-6.3-6.6-9.6-15-9.6-24.2S571.1,59.6,577.6,53.1z
			 M602.1,93.5c8.5,0,15.5-7.2,15.5-16.1c0-9-7-16.2-15.5-16.2c-8.5,0-15.5,7.2-15.5,16.2C586.6,86.3,593.7,93.5,602.1,93.5z"/>
	</g>
	<g id="XMLID_3_">
		<g id="XMLID_11677_">
			<polygon id="XMLID_11678_" class="st1" points="0,0 81,37.5 0,148 			"/>
		</g>
		<g id="XMLID_11675_">
			<polygon id="XMLID_11676_" class="st2" points="162,0 81,37.5 162,148 			"/>
		</g>
		<polygon id="XMLID_11674_" class="st3" points="162,0 81,37.5 81,131.7 		"/>
		<polygon id="XMLID_1227_" class="st4" points="0,0 81,37.5 81,131.7 		"/>
	</g>
</g>
</svg>
