<?xml version="1.0" encoding="utf-8"?>
<!-- Generator: Adobe Illustrator 19.1.0, SVG Export Plug-In . SVG Version: 6.00 Build 0)  -->
<svg version="1.0" id="Layer_1" xmlns="http://www.w3.org/2000/svg" xmlns:xlink="http://www.w3.org/1999/xlink" x="0px" y="0px"
	 viewBox="0 0 800 189.626" enable-background="new 0 0 800 189.626" xml:space="preserve">
<g>
	<g>
		<path fill="#14233C" d="M271.715,140.499v-84.98h22.63v11.394c5.222-8.704,12.818-12.976,23.105-12.976
			s18.041,4.431,23.579,13.609c8.862-9.337,15.667-13.609,26.27-13.609c19.148,0,29.909,10.761,29.909,30.542v56.02h-24.37V94.448
			c0-11.869-2.532-17.249-11.869-17.249c-9.495,0-14.559,5.855-14.559,17.249v46.051h-24.529V94.448
			c0-11.869-2.532-17.249-11.869-17.249c-9.495,0-14.559,5.855-14.559,17.249v46.051H271.715z"/>
		<path fill="#14233C" d="M424.161,66.596c8.546-8.545,19.781-13.293,31.334-13.293c12.343,0,22.946,4.273,31.492,12.343
			c9.02,8.546,13.926,20.256,13.926,31.808c0,12.818-4.273,23.421-12.818,31.966c-8.704,8.704-19.465,13.293-32.283,13.293
			c-12.976,0-23.421-4.431-32.125-13.609c-8.229-8.546-12.502-19.465-12.502-31.334S415.774,74.983,424.161,66.596z
			 M455.969,118.977c11.078,0,20.098-9.337,20.098-20.889c0-11.71-9.02-21.047-20.098-21.047c-11.077,0-20.098,9.337-20.098,21.047
			C435.872,109.64,445.05,118.977,455.969,118.977z"/>
		<path fill="#14233C" d="M514.889,140.499v-84.98h23.738l-0.317,11.394c5.222-8.545,13.135-12.976,24.37-12.976
			c17.566,0,28.96,11.077,28.96,30.542v56.02h-25.004V94.448c0-11.869-2.532-17.249-12.185-17.249
			c-9.812,0-15.034,5.855-15.034,17.249v46.051H514.889z"/>
		<path fill="#14233C" d="M672.084,131.004c-7.438,7.279-15.034,9.969-25.162,9.969c-10.286,0-19.148-3.323-26.586-9.969
			c-9.812-8.704-14.875-20.098-14.875-33.391c0-12.185,4.747-23.105,13.609-31.65c7.913-7.754,17.566-11.71,28.327-11.71
			c10.286,0,18.199,3.481,23.896,10.761v-37.03h25.003v112.516h-24.212V131.004z M652.461,118.344
			c10.761,0,19.781-8.862,19.781-20.572c0-12.185-9.021-21.364-20.731-21.364c-11.868,0-21.047,9.653-21.047,21.047
			C630.464,109.323,639.643,118.344,652.461,118.344z"/>
		<path fill="#14233C" d="M723.249,66.596c8.545-8.545,19.781-13.293,31.334-13.293c12.343,0,22.946,4.273,31.491,12.343
			C795.095,74.192,800,85.902,800,97.455c0,12.818-4.273,23.421-12.818,31.966c-8.704,8.704-19.465,13.293-32.283,13.293
			c-12.977,0-23.421-4.431-32.125-13.609c-8.229-8.546-12.502-19.465-12.502-31.334S714.861,74.983,723.249,66.596z
			 M755.057,118.977c11.077,0,20.098-9.337,20.098-20.889c0-11.71-9.021-21.047-20.098-21.047c-11.078,0-20.098,9.337-20.098,21.047
			C734.959,109.64,744.137,118.977,755.057,118.977z"/>
	</g>
	<g>
		<path fill="#E64B5F" d="M210.144,138.022c0,2.581-1.025,5.056-2.85,6.88l-43.575,43.575c-2.452,2.452-6.644,0.715-6.644-2.752
			V88.084l52.464-52.17h0.605V138.022z"/>
		<path fill="#EAD19F" d="M175.37,1.14c-1.52-1.52-3.984-1.52-5.504,0l-64.794,64.794h-0.9v73.13l0.9,1.921l52.003-52.003
			l53.069-53.069L175.37,1.14z"/>
		<path fill="#1E788C" d="M0,138.022c0,2.581,1.025,5.056,2.85,6.88l43.575,43.575c2.452,2.452,6.644,0.715,6.644-2.752V88.084
			L0.605,35.914H0V138.022z"/>
		<path fill="#9ABDA9" d="M40.278,1.14c-1.52-1.52-3.984-1.52-5.504,0L0,35.914l53.069,53.07l52.003,52.003V65.934L40.278,1.14z"/>
	</g>
</g>
</svg>
